<svg xmlns="http://www.w3.org/2000/svg" xmlns:xlink="http://www.w3.org/1999/xlink" width="30" height="444" viewBox="0 0 30 444"><svg viewBox="0 0 7 30" width="7" height="30" id="arrow-bottom" y="0"><path d="M0 23h3V0h1v23h3l-3.5 7L0 23z"></path></svg><svg viewBox="0 0 30 7" width="30" height="7" id="arrow-left" y="30"><path d="M7 0v3h23v1H7v3L0 3.5 7 0z"></path></svg><svg viewBox="0 0 30 7" width="30" height="7" id="arrow-right" y="37"><path d="M23 7V4H0V3h23V0l7 3.5L23 7z"></path></svg><svg viewBox="0 0 7 30" width="7" height="30" id="arrow-top" y="44"><path d="M7 7H4v23H3V7H0l3.5-7L7 7z"></path></svg><svg width="30" height="370" viewBox="0 0 30 370" id="icons" y="74"><svg viewBox="0 0 7 30" width="7" height="30"><path d="M0 23h3V0h1v23h3l-3.5 7L0 23z"></path></svg><svg viewBox="0 0 30 7" width="30" height="7" y="30"><path d="M7 0v3h23v1H7v3L0 3.5 7 0z"></path></svg><svg viewBox="0 0 30 7" width="30" height="7" y="37"><path d="M23 7V4H0V3h23V0l7 3.5L23 7z"></path></svg><svg viewBox="0 0 7 30" width="7" height="30" y="44"><path d="M7 7H4v23H3V7H0l3.5-7L7 7z"></path></svg><svg width="30" height="296" viewBox="0 0 30 296" y="74"><svg viewBox="0 0 7 30" width="7" height="30"><path d="M0 23h3V0h1v23h3l-3.5 7L0 23z"></path></svg><svg viewBox="0 0 30 7" width="30" height="7" y="30"><path d="M7 0v3h23v1H7v3L0 3.5 7 0z"></path></svg><svg viewBox="0 0 30 7" width="30" height="7" y="37"><path d="M23 7V4H0V3h23V0l7 3.5L23 7z"></path></svg><svg viewBox="0 0 7 30" width="7" height="30" y="44"><path d="M7 7H4v23H3V7H0l3.5-7L7 7z"></path></svg><svg width="30" height="222" viewBox="0 0 30 222" y="74"><svg viewBox="0 0 7 30" width="7" height="30"><path d="M0 23h3V0h1v23h3l-3.5 7L0 23z"></path></svg><svg viewBox="0 0 30 7" width="30" height="7" y="30"><path d="M7 0v3h23v1H7v3L0 3.5 7 0z"></path></svg><svg viewBox="0 0 30 7" width="30" height="7" y="37"><path d="M23 7V4H0V3h23V0l7 3.5L23 7z"></path></svg><svg viewBox="0 0 7 30" width="7" height="30" y="44"><path d="M7 7H4v23H3V7H0l3.5-7L7 7z"></path></svg><svg width="30" height="148" viewBox="0 0 30 148" y="74"><svg viewBox="0 0 7 30" width="7" height="30"><path d="M0 23h3V0h1v23h3l-3.5 7L0 23z"></path></svg><svg viewBox="0 0 30 7" width="30" height="7" y="30"><path d="M7 0v3h23v1H7v3L0 3.5 7 0z"></path></svg><svg viewBox="0 0 30 7" width="30" height="7" y="37"><path d="M23 7V4H0V3h23V0l7 3.5L23 7z"></path></svg><svg viewBox="0 0 7 30" width="7" height="30" y="44"><path d="M7 7H4v23H3V7H0l3.5-7L7 7z"></path></svg><svg width="30" height="74" viewBox="0 0 30 74" y="74"><svg viewBox="0 0 7 30" width="7" height="30"><path d="M0 23h3V0h1v23h3l-3.5 7L0 23z"></path></svg><svg viewBox="0 0 30 7" width="30" height="7" y="30"><path d="M7 0v3h23v1H7v3L0 3.5 7 0z"></path></svg><svg viewBox="0 0 30 7" width="30" height="7" y="37"><path d="M23 7V4H0V3h23V0l7 3.5L23 7z"></path></svg><svg viewBox="0 0 7 30" width="7" height="30" y="44"><path d="M7 7H4v23H3V7H0l3.5-7L7 7z"></path></svg></svg></svg></svg></svg></svg></svg>